<svg width="221" height="37" viewBox="0 0 221 37" fill="none" xmlns="http://www.w3.org/2000/svg">
<path d="M0.0284091 1.09091H9.45455L16.8352 15.6989H17.142L24.5227 1.09091H33.9489L21.1818 24.3409V36H12.7955V24.3409L0.0284091 1.09091ZM52.456 24.6989V9.81818H60.7741V36H52.831V31.125H52.5582C51.9787 32.7273 50.9901 34 49.5923 34.9432C48.206 35.875 46.5298 36.3409 44.5639 36.3409C42.7798 36.3409 41.2116 35.9318 39.8594 35.1136C38.5071 34.2955 37.456 33.1534 36.706 31.6875C35.956 30.2102 35.5753 28.483 35.5639 26.5057V9.81818H43.8991V24.8693C43.9105 26.2898 44.2855 27.4091 45.0241 28.2273C45.7628 29.0455 46.7685 29.4545 48.0412 29.4545C48.8707 29.4545 49.6151 29.2727 50.2741 28.9091C50.9446 28.5341 51.473 27.9943 51.8594 27.2898C52.2571 26.5739 52.456 25.7102 52.456 24.6989ZM82.9716 24.6989V9.81818H91.2898V36H83.3466V31.125H83.0739C82.4943 32.7273 81.5057 34 80.108 34.9432C78.7216 35.875 77.0455 36.3409 75.0795 36.3409C73.2955 36.3409 71.7273 35.9318 70.375 35.1136C69.0227 34.2955 67.9716 33.1534 67.2216 31.6875C66.4716 30.2102 66.0909 28.483 66.0795 26.5057V9.81818H74.4148V24.8693C74.4261 26.2898 74.8011 27.4091 75.5398 28.2273C76.2784 29.0455 77.2841 29.4545 78.5568 29.4545C79.3864 29.4545 80.1307 29.2727 80.7898 28.9091C81.4602 28.5341 81.9886 27.9943 82.375 27.2898C82.7727 26.5739 82.9716 25.7102 82.9716 24.6989ZM115.464 11.5568C115.351 10.3068 114.845 9.33523 113.947 8.64205C113.061 7.9375 111.794 7.58523 110.146 7.58523C109.055 7.58523 108.146 7.72727 107.419 8.01136C106.692 8.29545 106.146 8.6875 105.783 9.1875C105.419 9.67614 105.232 10.2386 105.22 10.875C105.197 11.3977 105.3 11.858 105.527 12.2557C105.766 12.6534 106.107 13.0057 106.55 13.3125C107.004 13.608 107.55 13.8693 108.186 14.0966C108.822 14.3239 109.538 14.5227 110.334 14.6932L113.334 15.375C115.061 15.75 116.584 16.25 117.902 16.875C119.232 17.5 120.345 18.2443 121.243 19.108C122.152 19.9716 122.839 20.9659 123.305 22.0909C123.771 23.2159 124.01 24.4773 124.021 25.875C124.01 28.0795 123.453 29.9716 122.351 31.5511C121.249 33.1307 119.663 34.3409 117.595 35.1818C115.538 36.0227 113.055 36.4432 110.146 36.4432C107.226 36.4432 104.68 36.0057 102.51 35.1307C100.339 34.2557 98.652 32.9261 97.4474 31.142C96.2429 29.358 95.6236 27.1023 95.5895 24.375H103.669C103.737 25.5 104.038 26.4375 104.572 27.1875C105.107 27.9375 105.839 28.5057 106.771 28.892C107.714 29.2784 108.805 29.4716 110.044 29.4716C111.18 29.4716 112.146 29.3182 112.942 29.0114C113.749 28.7045 114.368 28.2784 114.8 27.733C115.232 27.1875 115.453 26.5625 115.464 25.858C115.453 25.1989 115.249 24.6364 114.851 24.1705C114.453 23.6932 113.839 23.2841 113.01 22.9432C112.192 22.5909 111.146 22.267 109.874 21.9716L106.226 21.1193C103.203 20.4261 100.822 19.3068 99.0838 17.7614C97.3452 16.2045 96.4815 14.1023 96.4929 11.4545C96.4815 9.29545 97.0611 7.40341 98.2315 5.77841C99.402 4.15341 101.021 2.88636 103.089 1.97727C105.158 1.06818 107.516 0.613635 110.163 0.613635C112.868 0.613635 115.214 1.07386 117.203 1.99432C119.203 2.90341 120.754 4.18182 121.857 5.82955C122.959 7.47727 123.521 9.38636 123.544 11.5568H115.464ZM143.061 9.81818V15.9545H126.544V9.81818H143.061ZM130.004 3.54545H138.339V27.767C138.339 28.2784 138.419 28.6932 138.578 29.0114C138.749 29.3182 138.993 29.5398 139.311 29.6761C139.629 29.8011 140.01 29.8636 140.453 29.8636C140.771 29.8636 141.107 29.8352 141.459 29.7784C141.822 29.7102 142.095 29.6534 142.277 29.608L143.538 35.625C143.141 35.7386 142.578 35.8807 141.851 36.0511C141.135 36.2216 140.277 36.3295 139.277 36.375C137.322 36.4659 135.646 36.2386 134.249 35.6932C132.862 35.1364 131.8 34.2727 131.061 33.1023C130.334 31.9318 129.982 30.4602 130.004 28.6875V3.54545ZM159.254 36.4943C156.504 36.4943 154.141 35.9318 152.163 34.8068C150.197 33.6705 148.68 32.0909 147.612 30.0682C146.555 28.0341 146.027 25.6761 146.027 22.9943C146.027 20.3011 146.555 17.9432 147.612 15.9205C148.68 13.8864 150.197 12.3068 152.163 11.1818C154.141 10.0455 156.504 9.47727 159.254 9.47727C162.004 9.47727 164.362 10.0455 166.328 11.1818C168.305 12.3068 169.822 13.8864 170.879 15.9205C171.947 17.9432 172.482 20.3011 172.482 22.9943C172.482 25.6761 171.947 28.0341 170.879 30.0682C169.822 32.0909 168.305 33.6705 166.328 34.8068C164.362 35.9318 162.004 36.4943 159.254 36.4943ZM159.305 30.2045C160.305 30.2045 161.152 29.8977 161.845 29.2841C162.538 28.6705 163.067 27.8182 163.43 26.7273C163.805 25.6364 163.993 24.375 163.993 22.9432C163.993 21.4886 163.805 20.2159 163.43 19.125C163.067 18.0341 162.538 17.1818 161.845 16.5682C161.152 15.9545 160.305 15.6477 159.305 15.6477C158.271 15.6477 157.396 15.9545 156.68 16.5682C155.976 17.1818 155.436 18.0341 155.061 19.125C154.697 20.2159 154.516 21.4886 154.516 22.9432C154.516 24.375 154.697 25.6364 155.061 26.7273C155.436 27.8182 155.976 28.6705 156.68 29.2841C157.396 29.8977 158.271 30.2045 159.305 30.2045ZM176.751 36V9.81818H184.848V14.5909H185.121C185.598 12.8636 186.376 11.5795 187.456 10.7386C188.536 9.88636 189.791 9.46023 191.223 9.46023C191.609 9.46023 192.007 9.48864 192.416 9.54545C192.825 9.59091 193.206 9.66477 193.558 9.76705V17.0114C193.161 16.875 192.638 16.767 191.99 16.6875C191.354 16.608 190.786 16.5682 190.286 16.5682C189.297 16.5682 188.405 16.7898 187.609 17.233C186.825 17.6648 186.206 18.2727 185.751 19.0568C185.308 19.8295 185.087 20.7386 185.087 21.7841V36H176.751ZM207.834 36.4943C205.095 36.4943 202.732 35.9545 200.743 34.875C198.766 33.7841 197.243 32.233 196.175 30.2216C195.118 28.1989 194.589 25.7955 194.589 23.0114C194.589 20.3068 195.124 17.9432 196.192 15.9205C197.26 13.8864 198.766 12.3068 200.709 11.1818C202.652 10.0455 204.942 9.47727 207.578 9.47727C209.442 9.47727 211.146 9.76705 212.692 10.3466C214.237 10.9261 215.572 11.7841 216.697 12.9205C217.822 14.0568 218.697 15.4602 219.322 17.1307C219.947 18.7898 220.26 20.6932 220.26 22.8409V24.9205H197.504V20.0795H212.504C212.493 19.1932 212.283 18.4034 211.874 17.7102C211.464 17.017 210.902 16.4773 210.186 16.0909C209.482 15.6932 208.669 15.4943 207.749 15.4943C206.817 15.4943 205.982 15.7045 205.243 16.125C204.504 16.5341 203.919 17.0966 203.487 17.8125C203.055 18.517 202.828 19.3182 202.805 20.2159V25.142C202.805 26.2102 203.016 27.1477 203.436 27.9545C203.857 28.75 204.453 29.3693 205.226 29.8125C205.999 30.2557 206.919 30.4773 207.987 30.4773C208.726 30.4773 209.396 30.375 209.999 30.1705C210.601 29.9659 211.118 29.6648 211.55 29.267C211.982 28.8693 212.305 28.3807 212.521 27.8011L220.175 28.0227C219.857 29.7386 219.158 31.233 218.078 32.5057C217.01 33.767 215.607 34.75 213.868 35.4545C212.129 36.1477 210.118 36.4943 207.834 36.4943Z" fill="black"/>
</svg>
