<svg width="217" height="37" viewBox="0 0 217 37" fill="none" xmlns="http://www.w3.org/2000/svg">
<path d="M0.0120739 1.09091H8.27912L16.2393 16.125H16.5803L24.5405 1.09091H32.8075L20.0746 23.6591V36H12.745V23.6591L0.0120739 1.09091ZM51.5703 24.8523V9.81818H58.8317V36H51.8601V31.2443H51.5874C50.9964 32.7784 50.0135 34.0114 48.6385 34.9432C47.2749 35.875 45.6101 36.3409 43.6442 36.3409C41.8942 36.3409 40.3544 35.9432 39.0249 35.1477C37.6953 34.3523 36.6555 33.2216 35.9055 31.7557C35.1669 30.2898 34.7919 28.5341 34.7805 26.4886V9.81818H42.0419V25.1932C42.0533 26.7386 42.468 27.9602 43.2862 28.858C44.1044 29.7557 45.201 30.2045 46.576 30.2045C47.451 30.2045 48.2692 30.0057 49.0305 29.608C49.7919 29.1989 50.4055 28.5966 50.8714 27.8011C51.3487 27.0057 51.5817 26.0227 51.5703 24.8523ZM81.4297 24.8523V9.81818H88.6911V36H81.7195V31.2443H81.4467C80.8558 32.7784 79.8729 34.0114 78.4979 34.9432C77.1342 35.875 75.4695 36.3409 73.5036 36.3409C71.7536 36.3409 70.2138 35.9432 68.8842 35.1477C67.5547 34.3523 66.5149 33.2216 65.7649 31.7557C65.0263 30.2898 64.6513 28.5341 64.6399 26.4886V9.81818H71.9013V25.1932C71.9126 26.7386 72.3274 27.9602 73.1456 28.858C73.9638 29.7557 75.0604 30.2045 76.4354 30.2045C77.3104 30.2045 78.1286 30.0057 78.8899 29.608C79.6513 29.1989 80.2649 28.5966 80.7308 27.8011C81.2081 27.0057 81.4411 26.0227 81.4297 24.8523ZM113.573 11.1307C113.437 9.75568 112.852 8.6875 111.817 7.92614C110.783 7.16477 109.38 6.78409 107.607 6.78409C106.403 6.78409 105.386 6.95454 104.556 7.29545C103.727 7.625 103.09 8.08523 102.647 8.67614C102.215 9.26705 101.999 9.9375 101.999 10.6875C101.977 11.3125 102.107 11.858 102.391 12.3239C102.687 12.7898 103.09 13.1932 103.602 13.5341C104.113 13.8636 104.704 14.1534 105.374 14.4034C106.045 14.642 106.761 14.8466 107.522 15.017L110.658 15.767C112.181 16.108 113.579 16.5625 114.852 17.1307C116.124 17.6989 117.227 18.3977 118.158 19.2273C119.09 20.0568 119.812 21.0341 120.323 22.1591C120.846 23.2841 121.113 24.5739 121.124 26.0284C121.113 28.1648 120.567 30.017 119.488 31.5852C118.42 33.142 116.874 34.3523 114.852 35.2159C112.84 36.0682 110.414 36.4943 107.573 36.4943C104.755 36.4943 102.3 36.0625 100.21 35.1989C98.13 34.3352 96.505 33.0568 95.3345 31.3636C94.1754 29.6591 93.5675 27.5511 93.5107 25.0398H100.653C100.732 26.2102 101.067 27.1875 101.658 27.9716C102.261 28.7443 103.062 29.3295 104.062 29.7273C105.073 30.1136 106.215 30.3068 107.488 30.3068C108.738 30.3068 109.823 30.125 110.744 29.7614C111.675 29.3977 112.397 28.892 112.908 28.2443C113.42 27.5966 113.675 26.8523 113.675 26.0114C113.675 25.2273 113.442 24.5682 112.977 24.0341C112.522 23.5 111.852 23.0455 110.965 22.6705C110.09 22.2955 109.016 21.9545 107.744 21.6477L103.942 20.6932C100.999 19.9773 98.6754 18.858 96.9709 17.3352C95.2663 15.8125 94.4197 13.7614 94.4311 11.1818C94.4197 9.06818 94.9822 7.22159 96.1186 5.64205C97.2663 4.0625 98.8402 2.82955 100.84 1.94318C102.84 1.05682 105.113 0.613635 107.658 0.613635C110.249 0.613635 112.511 1.05682 114.442 1.94318C116.386 2.82955 117.897 4.0625 118.977 5.64205C120.056 7.22159 120.613 9.05114 120.647 11.1307H113.573ZM139.879 9.81818V15.2727H124.112V9.81818H139.879ZM127.691 3.54545H134.952V27.9545C134.952 28.625 135.055 29.1477 135.259 29.5227C135.464 29.8864 135.748 30.142 136.112 30.2898C136.487 30.4375 136.918 30.5114 137.407 30.5114C137.748 30.5114 138.089 30.483 138.43 30.4261C138.771 30.358 139.032 30.3068 139.214 30.2727L140.356 35.6761C139.992 35.7898 139.481 35.9205 138.822 36.0682C138.163 36.2273 137.362 36.3239 136.418 36.358C134.668 36.4261 133.134 36.1932 131.816 35.6591C130.509 35.125 129.492 34.2955 128.765 33.1705C128.038 32.0455 127.68 30.625 127.691 28.9091V3.54545ZM156.157 36.5114C153.509 36.5114 151.219 35.9489 149.288 34.8239C147.367 33.6875 145.884 32.108 144.839 30.0852C143.793 28.0511 143.271 25.6932 143.271 23.0114C143.271 20.3068 143.793 17.9432 144.839 15.9205C145.884 13.8864 147.367 12.3068 149.288 11.1818C151.219 10.0455 153.509 9.47727 156.157 9.47727C158.805 9.47727 161.089 10.0455 163.009 11.1818C164.941 12.3068 166.43 13.8864 167.475 15.9205C168.521 17.9432 169.043 20.3068 169.043 23.0114C169.043 25.6932 168.521 28.0511 167.475 30.0852C166.43 32.108 164.941 33.6875 163.009 34.8239C161.089 35.9489 158.805 36.5114 156.157 36.5114ZM156.191 30.8864C157.396 30.8864 158.401 30.5455 159.208 29.8636C160.015 29.1705 160.623 28.2273 161.032 27.0341C161.452 25.8409 161.663 24.483 161.663 22.9602C161.663 21.4375 161.452 20.0795 161.032 18.8864C160.623 17.6932 160.015 16.75 159.208 16.0568C158.401 15.3636 157.396 15.017 156.191 15.017C154.975 15.017 153.952 15.3636 153.123 16.0568C152.305 16.75 151.685 17.6932 151.265 18.8864C150.856 20.0795 150.651 21.4375 150.651 22.9602C150.651 24.483 150.856 25.8409 151.265 27.0341C151.685 28.2273 152.305 29.1705 153.123 29.8636C153.952 30.5455 154.975 30.8864 156.191 30.8864ZM173.765 36V9.81818H180.805V14.3864H181.077C181.555 12.7614 182.356 11.5341 183.481 10.7045C184.606 9.86364 185.901 9.44318 187.367 9.44318C187.731 9.44318 188.123 9.46591 188.543 9.51136C188.964 9.55682 189.333 9.61932 189.651 9.69886V16.142C189.31 16.0398 188.839 15.9489 188.237 15.8693C187.634 15.7898 187.083 15.75 186.583 15.75C185.515 15.75 184.56 15.983 183.719 16.4489C182.89 16.9034 182.231 17.5398 181.742 18.358C181.265 19.1761 181.026 20.1193 181.026 21.1875V36H173.765ZM204.119 36.5114C201.425 36.5114 199.107 35.9659 197.164 34.875C195.232 33.7727 193.744 32.2159 192.698 30.2045C191.653 28.1818 191.13 25.7898 191.13 23.0284C191.13 20.3352 191.653 17.9716 192.698 15.9375C193.744 13.9034 195.215 12.3182 197.113 11.1818C199.022 10.0455 201.261 9.47727 203.829 9.47727C205.556 9.47727 207.164 9.75568 208.653 10.3125C210.153 10.858 211.46 11.6818 212.573 12.7841C213.698 13.8864 214.573 15.2727 215.198 16.9432C215.823 18.6023 216.136 20.5455 216.136 22.7727V24.767H194.028V20.267H209.3C209.3 19.2216 209.073 18.2955 208.619 17.4886C208.164 16.6818 207.533 16.0511 206.727 15.5966C205.931 15.1307 205.005 14.8977 203.948 14.8977C202.846 14.8977 201.869 15.1534 201.016 15.6648C200.175 16.1648 199.516 16.8409 199.039 17.6932C198.562 18.5341 198.317 19.4716 198.306 20.5057V24.7841C198.306 26.0795 198.545 27.1989 199.022 28.142C199.511 29.0852 200.198 29.8125 201.085 30.3239C201.971 30.8352 203.022 31.0909 204.238 31.0909C205.045 31.0909 205.783 30.9773 206.454 30.75C207.124 30.5227 207.698 30.1818 208.175 29.7273C208.653 29.2727 209.016 28.7159 209.266 28.0568L215.982 28.5C215.641 30.1136 214.942 31.5227 213.886 32.7273C212.84 33.9205 211.488 34.8523 209.829 35.5227C208.181 36.1818 206.278 36.5114 204.119 36.5114Z" fill="black"/>
</svg>
